<mxfile host="app.diagrams.net" agent="Mozilla/5.0 (Windows NT 10.0; Win64; x64) AppleWebKit/537.36 (KHTML, like Gecko) Chrome/129.0.0.0 Safari/537.36 Edg/129.0.0.0" version="24.8.0">
  <diagram name="Page-1" id="0783ab3e-0a74-02c8-0abd-f7b4e66b4bec">
    <mxGraphModel dx="3238" dy="1512" grid="1" gridSize="10" guides="1" tooltips="1" connect="1" arrows="1" fold="1" page="1" pageScale="1" pageWidth="850" pageHeight="1100" background="none" math="0" shadow="0">
      <root>
        <mxCell id="0" />
        <mxCell id="1" parent="0" />
        <mxCell id="1c1d494c118603dd-1" value="Pool" style="swimlane;html=1;childLayout=stackLayout;startSize=20;rounded=0;shadow=0;comic=0;labelBackgroundColor=none;strokeWidth=1;fontFamily=Verdana;fontSize=12;align=center;" parent="1" vertex="1">
          <mxGeometry x="-80" y="40" width="838.37" height="1130" as="geometry">
            <mxRectangle x="40" y="20" width="70" height="30" as="alternateBounds" />
          </mxGeometry>
        </mxCell>
        <mxCell id="1c1d494c118603dd-2" value="Клиент" style="swimlane;html=1;startSize=20;" parent="1c1d494c118603dd-1" vertex="1">
          <mxGeometry y="20" width="298" height="1110" as="geometry" />
        </mxCell>
        <mxCell id="5TCbdHprw5-dNmB80KR2-68" style="edgeStyle=orthogonalEdgeStyle;rounded=0;orthogonalLoop=1;jettySize=auto;html=1;entryX=0.5;entryY=0;entryDx=0;entryDy=0;" edge="1" parent="1c1d494c118603dd-2" source="5TCbdHprw5-dNmB80KR2-66" target="5TCbdHprw5-dNmB80KR2-67">
          <mxGeometry relative="1" as="geometry" />
        </mxCell>
        <mxCell id="5TCbdHprw5-dNmB80KR2-66" value="" style="ellipse;whiteSpace=wrap;html=1;rounded=0;shadow=0;comic=0;labelBackgroundColor=none;strokeWidth=1;fillColor=#000000;fontFamily=Verdana;fontSize=12;align=center;" vertex="1" parent="1c1d494c118603dd-2">
          <mxGeometry x="20" y="40" width="30" height="30" as="geometry" />
        </mxCell>
        <mxCell id="5TCbdHprw5-dNmB80KR2-67" value="Отправить заявку на участие в игре" style="rounded=1;whiteSpace=wrap;html=1;shadow=0;comic=0;labelBackgroundColor=none;strokeWidth=1;fontFamily=Verdana;fontSize=12;align=center;arcSize=50;" vertex="1" parent="1c1d494c118603dd-2">
          <mxGeometry x="80" y="80" width="155" height="40" as="geometry" />
        </mxCell>
        <mxCell id="5TCbdHprw5-dNmB80KR2-92" style="edgeStyle=orthogonalEdgeStyle;rounded=0;orthogonalLoop=1;jettySize=auto;html=1;entryX=1;entryY=0.5;entryDx=0;entryDy=0;" edge="1" parent="1c1d494c118603dd-2" source="5TCbdHprw5-dNmB80KR2-87" target="5TCbdHprw5-dNmB80KR2-91">
          <mxGeometry relative="1" as="geometry" />
        </mxCell>
        <mxCell id="5TCbdHprw5-dNmB80KR2-87" value="Отображение заявки" style="rounded=1;whiteSpace=wrap;html=1;shadow=0;comic=0;labelBackgroundColor=none;strokeWidth=1;fontFamily=Verdana;fontSize=12;align=center;arcSize=50;" vertex="1" parent="1c1d494c118603dd-2">
          <mxGeometry x="90" y="240" width="190" height="30" as="geometry" />
        </mxCell>
        <mxCell id="5TCbdHprw5-dNmB80KR2-91" value="" style="shape=mxgraph.bpmn.shape;html=1;verticalLabelPosition=bottom;labelBackgroundColor=#ffffff;verticalAlign=top;perimeter=ellipsePerimeter;outline=end;symbol=terminate;rounded=0;shadow=0;comic=0;strokeWidth=1;fontFamily=Verdana;fontSize=12;align=center;" vertex="1" parent="1c1d494c118603dd-2">
          <mxGeometry x="20" y="240" width="30" height="30" as="geometry" />
        </mxCell>
        <mxCell id="5TCbdHprw5-dNmB80KR2-96" style="edgeStyle=orthogonalEdgeStyle;rounded=0;orthogonalLoop=1;jettySize=auto;html=1;entryX=0.5;entryY=0;entryDx=0;entryDy=0;" edge="1" parent="1c1d494c118603dd-2" source="5TCbdHprw5-dNmB80KR2-93" target="5TCbdHprw5-dNmB80KR2-94">
          <mxGeometry relative="1" as="geometry" />
        </mxCell>
        <mxCell id="5TCbdHprw5-dNmB80KR2-93" value="" style="ellipse;whiteSpace=wrap;html=1;rounded=0;shadow=0;comic=0;labelBackgroundColor=none;strokeWidth=1;fillColor=#000000;fontFamily=Verdana;fontSize=12;align=center;" vertex="1" parent="1c1d494c118603dd-2">
          <mxGeometry x="20" y="290" width="30" height="30" as="geometry" />
        </mxCell>
        <mxCell id="5TCbdHprw5-dNmB80KR2-94" value="Заполнение формы для создания игры" style="rounded=1;whiteSpace=wrap;html=1;shadow=0;comic=0;labelBackgroundColor=none;strokeWidth=1;fontFamily=Verdana;fontSize=12;align=center;arcSize=50;" vertex="1" parent="1c1d494c118603dd-2">
          <mxGeometry x="70" y="330" width="208.5" height="40" as="geometry" />
        </mxCell>
        <mxCell id="5TCbdHprw5-dNmB80KR2-95" value="Создание игровых вопросов и ответов на них" style="rounded=1;whiteSpace=wrap;html=1;shadow=0;comic=0;labelBackgroundColor=none;strokeWidth=1;fontFamily=Verdana;fontSize=12;align=center;arcSize=50;" vertex="1" parent="1c1d494c118603dd-2">
          <mxGeometry x="34.75" y="410" width="228.5" height="40" as="geometry" />
        </mxCell>
        <mxCell id="5TCbdHprw5-dNmB80KR2-97" style="edgeStyle=orthogonalEdgeStyle;rounded=0;orthogonalLoop=1;jettySize=auto;html=1;entryX=0.443;entryY=-0.017;entryDx=0;entryDy=0;entryPerimeter=0;" edge="1" parent="1c1d494c118603dd-2" source="5TCbdHprw5-dNmB80KR2-94" target="5TCbdHprw5-dNmB80KR2-95">
          <mxGeometry relative="1" as="geometry" />
        </mxCell>
        <mxCell id="5TCbdHprw5-dNmB80KR2-107" style="edgeStyle=orthogonalEdgeStyle;rounded=0;orthogonalLoop=1;jettySize=auto;html=1;entryX=1;entryY=0.5;entryDx=0;entryDy=0;exitX=0;exitY=0.5;exitDx=0;exitDy=0;" edge="1" parent="1c1d494c118603dd-2" source="5TCbdHprw5-dNmB80KR2-104" target="5TCbdHprw5-dNmB80KR2-106">
          <mxGeometry relative="1" as="geometry" />
        </mxCell>
        <mxCell id="5TCbdHprw5-dNmB80KR2-104" value="Отображение созданной игры" style="rounded=1;whiteSpace=wrap;html=1;shadow=0;comic=0;labelBackgroundColor=none;strokeWidth=1;fontFamily=Verdana;fontSize=12;align=center;arcSize=50;" vertex="1" parent="1c1d494c118603dd-2">
          <mxGeometry x="80" y="570" width="198.5" height="30" as="geometry" />
        </mxCell>
        <mxCell id="5TCbdHprw5-dNmB80KR2-106" value="" style="shape=mxgraph.bpmn.shape;html=1;verticalLabelPosition=bottom;labelBackgroundColor=#ffffff;verticalAlign=top;perimeter=ellipsePerimeter;outline=end;symbol=terminate;rounded=0;shadow=0;comic=0;strokeWidth=1;fontFamily=Verdana;fontSize=12;align=center;" vertex="1" parent="1c1d494c118603dd-2">
          <mxGeometry x="20" y="570" width="30" height="30" as="geometry" />
        </mxCell>
        <mxCell id="5TCbdHprw5-dNmB80KR2-114" style="edgeStyle=orthogonalEdgeStyle;rounded=0;orthogonalLoop=1;jettySize=auto;html=1;" edge="1" parent="1c1d494c118603dd-2" source="5TCbdHprw5-dNmB80KR2-109" target="5TCbdHprw5-dNmB80KR2-110">
          <mxGeometry relative="1" as="geometry" />
        </mxCell>
        <mxCell id="5TCbdHprw5-dNmB80KR2-109" value="Выбор игры" style="rounded=1;whiteSpace=wrap;html=1;shadow=0;comic=0;labelBackgroundColor=none;strokeWidth=1;fontFamily=Verdana;fontSize=12;align=center;arcSize=50;" vertex="1" parent="1c1d494c118603dd-2">
          <mxGeometry x="112.63" y="700" width="143.25" height="30" as="geometry" />
        </mxCell>
        <mxCell id="5TCbdHprw5-dNmB80KR2-115" style="edgeStyle=orthogonalEdgeStyle;rounded=0;orthogonalLoop=1;jettySize=auto;html=1;" edge="1" parent="1c1d494c118603dd-2" source="5TCbdHprw5-dNmB80KR2-110" target="5TCbdHprw5-dNmB80KR2-111">
          <mxGeometry relative="1" as="geometry" />
        </mxCell>
        <mxCell id="5TCbdHprw5-dNmB80KR2-110" value="Вход в игру" style="rounded=1;whiteSpace=wrap;html=1;shadow=0;comic=0;labelBackgroundColor=none;strokeWidth=1;fontFamily=Verdana;fontSize=12;align=center;arcSize=50;" vertex="1" parent="1c1d494c118603dd-2">
          <mxGeometry x="112.63" y="760" width="141.75" height="30" as="geometry" />
        </mxCell>
        <mxCell id="5TCbdHprw5-dNmB80KR2-111" value="Приглашение участников" style="rounded=1;whiteSpace=wrap;html=1;shadow=0;comic=0;labelBackgroundColor=none;strokeWidth=1;fontFamily=Verdana;fontSize=12;align=center;arcSize=50;" vertex="1" parent="1c1d494c118603dd-2">
          <mxGeometry x="86.74999999999999" y="850" width="193.25" height="30" as="geometry" />
        </mxCell>
        <mxCell id="5TCbdHprw5-dNmB80KR2-113" style="edgeStyle=orthogonalEdgeStyle;rounded=0;orthogonalLoop=1;jettySize=auto;html=1;entryX=0.5;entryY=0;entryDx=0;entryDy=0;" edge="1" parent="1c1d494c118603dd-2" source="5TCbdHprw5-dNmB80KR2-112" target="5TCbdHprw5-dNmB80KR2-109">
          <mxGeometry relative="1" as="geometry" />
        </mxCell>
        <mxCell id="5TCbdHprw5-dNmB80KR2-112" value="" style="ellipse;whiteSpace=wrap;html=1;rounded=0;shadow=0;comic=0;labelBackgroundColor=none;strokeWidth=1;fillColor=#000000;fontFamily=Verdana;fontSize=12;align=center;" vertex="1" parent="1c1d494c118603dd-2">
          <mxGeometry x="20" y="660" width="30" height="30" as="geometry" />
        </mxCell>
        <mxCell id="5TCbdHprw5-dNmB80KR2-126" value="Ответы на вопросы" style="rounded=1;whiteSpace=wrap;html=1;shadow=0;comic=0;labelBackgroundColor=none;strokeWidth=1;fontFamily=Verdana;fontSize=12;align=center;arcSize=50;" vertex="1" parent="1c1d494c118603dd-2">
          <mxGeometry x="77.62999999999998" y="970" width="193.25" height="30" as="geometry" />
        </mxCell>
        <mxCell id="5TCbdHprw5-dNmB80KR2-130" style="edgeStyle=orthogonalEdgeStyle;rounded=0;orthogonalLoop=1;jettySize=auto;html=1;" edge="1" parent="1c1d494c118603dd-2" source="5TCbdHprw5-dNmB80KR2-128" target="5TCbdHprw5-dNmB80KR2-129">
          <mxGeometry relative="1" as="geometry" />
        </mxCell>
        <mxCell id="5TCbdHprw5-dNmB80KR2-128" value="Отображение результатов" style="rounded=1;whiteSpace=wrap;html=1;shadow=0;comic=0;labelBackgroundColor=none;strokeWidth=1;fontFamily=Verdana;fontSize=12;align=center;arcSize=50;" vertex="1" parent="1c1d494c118603dd-2">
          <mxGeometry x="77.61999999999998" y="1020" width="193.25" height="30" as="geometry" />
        </mxCell>
        <mxCell id="5TCbdHprw5-dNmB80KR2-129" value="" style="shape=mxgraph.bpmn.shape;html=1;verticalLabelPosition=bottom;labelBackgroundColor=#ffffff;verticalAlign=top;perimeter=ellipsePerimeter;outline=end;symbol=terminate;rounded=0;shadow=0;comic=0;strokeWidth=1;fontFamily=Verdana;fontSize=12;align=center;" vertex="1" parent="1c1d494c118603dd-2">
          <mxGeometry x="20" y="1020" width="30" height="30" as="geometry" />
        </mxCell>
        <mxCell id="5TCbdHprw5-dNmB80KR2-132" value="" style="whiteSpace=wrap;html=1;rounded=0;shadow=0;comic=0;labelBackgroundColor=none;strokeWidth=1;fillColor=#000000;fontFamily=Verdana;fontSize=12;align=center;rotation=0;" vertex="1" parent="1c1d494c118603dd-2">
          <mxGeometry x="135.37" y="800" width="99.63" height="10" as="geometry" />
        </mxCell>
        <mxCell id="1c1d494c118603dd-3" value="Веб-сервер" style="swimlane;html=1;startSize=20;" parent="1c1d494c118603dd-1" vertex="1">
          <mxGeometry x="298" y="20" width="290.37" height="1110" as="geometry" />
        </mxCell>
        <mxCell id="5TCbdHprw5-dNmB80KR2-74" value="Веб-сервер" style="swimlane;html=1;startSize=20;" vertex="1" parent="1c1d494c118603dd-3">
          <mxGeometry width="290.37" height="1110" as="geometry" />
        </mxCell>
        <mxCell id="5TCbdHprw5-dNmB80KR2-76" value="Регистрация заявки" style="rounded=1;whiteSpace=wrap;html=1;shadow=0;comic=0;labelBackgroundColor=none;strokeWidth=1;fontFamily=Verdana;fontSize=12;align=center;arcSize=50;" vertex="1" parent="5TCbdHprw5-dNmB80KR2-74">
          <mxGeometry x="48" y="120" width="155" height="30" as="geometry" />
        </mxCell>
        <mxCell id="5TCbdHprw5-dNmB80KR2-81" value="Отправить отклик" style="rounded=1;whiteSpace=wrap;html=1;shadow=0;comic=0;labelBackgroundColor=none;strokeWidth=1;fontFamily=Verdana;fontSize=12;align=center;arcSize=50;" vertex="1" parent="5TCbdHprw5-dNmB80KR2-74">
          <mxGeometry x="30.5" y="200" width="190" height="30" as="geometry" />
        </mxCell>
        <mxCell id="5TCbdHprw5-dNmB80KR2-98" value="Регистрация игры" style="rounded=1;whiteSpace=wrap;html=1;shadow=0;comic=0;labelBackgroundColor=none;strokeWidth=1;fontFamily=Verdana;fontSize=12;align=center;arcSize=50;" vertex="1" parent="5TCbdHprw5-dNmB80KR2-74">
          <mxGeometry x="48" y="450" width="155" height="30" as="geometry" />
        </mxCell>
        <mxCell id="5TCbdHprw5-dNmB80KR2-102" value="Формирование готовой игры" style="rounded=1;whiteSpace=wrap;html=1;shadow=0;comic=0;labelBackgroundColor=none;strokeWidth=1;fontFamily=Verdana;fontSize=12;align=center;arcSize=50;" vertex="1" parent="5TCbdHprw5-dNmB80KR2-74">
          <mxGeometry x="35.25" y="530" width="180.5" height="40" as="geometry" />
        </mxCell>
        <mxCell id="5TCbdHprw5-dNmB80KR2-116" value="Добавление пользователя в игровую комнату" style="rounded=1;whiteSpace=wrap;html=1;shadow=0;comic=0;labelBackgroundColor=none;strokeWidth=1;fontFamily=Verdana;fontSize=12;align=center;arcSize=50;" vertex="1" parent="5TCbdHprw5-dNmB80KR2-74">
          <mxGeometry x="48" y="820" width="204.75" height="40" as="geometry" />
        </mxCell>
        <mxCell id="5TCbdHprw5-dNmB80KR2-123" value="Запуск игры" style="rounded=1;whiteSpace=wrap;html=1;shadow=0;comic=0;labelBackgroundColor=none;strokeWidth=1;fontFamily=Verdana;fontSize=12;align=center;arcSize=50;" vertex="1" parent="5TCbdHprw5-dNmB80KR2-74">
          <mxGeometry x="57" y="930" width="186.75" height="30" as="geometry" />
        </mxCell>
        <mxCell id="5TCbdHprw5-dNmB80KR2-117" style="edgeStyle=orthogonalEdgeStyle;rounded=0;orthogonalLoop=1;jettySize=auto;html=1;entryX=0.5;entryY=0;entryDx=0;entryDy=0;" edge="1" parent="5TCbdHprw5-dNmB80KR2-74">
          <mxGeometry relative="1" as="geometry">
            <mxPoint x="-115" y="820" as="sourcePoint" />
            <mxPoint x="148.375" y="820" as="targetPoint" />
            <Array as="points">
              <mxPoint x="20" y="821" />
              <mxPoint x="20" y="800" />
              <mxPoint x="148" y="800" />
            </Array>
          </mxGeometry>
        </mxCell>
        <mxCell id="5TCbdHprw5-dNmB80KR2-142" value="Формирование результата" style="rounded=1;whiteSpace=wrap;html=1;shadow=0;comic=0;labelBackgroundColor=none;strokeWidth=1;fontFamily=Verdana;fontSize=12;align=center;arcSize=50;" vertex="1" parent="5TCbdHprw5-dNmB80KR2-74">
          <mxGeometry x="48" y="1010" width="186.75" height="30" as="geometry" />
        </mxCell>
        <mxCell id="5TCbdHprw5-dNmB80KR2-77" style="edgeStyle=orthogonalEdgeStyle;rounded=0;orthogonalLoop=1;jettySize=auto;html=1;entryX=0.5;entryY=0;entryDx=0;entryDy=0;exitX=1;exitY=0.5;exitDx=0;exitDy=0;" edge="1" parent="1c1d494c118603dd-1" source="5TCbdHprw5-dNmB80KR2-67" target="5TCbdHprw5-dNmB80KR2-76">
          <mxGeometry relative="1" as="geometry">
            <mxPoint x="170" y="160" as="sourcePoint" />
          </mxGeometry>
        </mxCell>
        <mxCell id="5TCbdHprw5-dNmB80KR2-84" style="edgeStyle=orthogonalEdgeStyle;rounded=0;orthogonalLoop=1;jettySize=auto;html=1;" edge="1" parent="1c1d494c118603dd-1" source="5TCbdHprw5-dNmB80KR2-78" target="5TCbdHprw5-dNmB80KR2-81">
          <mxGeometry relative="1" as="geometry" />
        </mxCell>
        <mxCell id="5TCbdHprw5-dNmB80KR2-80" style="edgeStyle=orthogonalEdgeStyle;rounded=0;orthogonalLoop=1;jettySize=auto;html=1;" edge="1" parent="1c1d494c118603dd-1" source="5TCbdHprw5-dNmB80KR2-76" target="5TCbdHprw5-dNmB80KR2-78">
          <mxGeometry relative="1" as="geometry" />
        </mxCell>
        <mxCell id="5TCbdHprw5-dNmB80KR2-75" value="База данных" style="swimlane;html=1;startSize=20;" vertex="1" parent="1c1d494c118603dd-1">
          <mxGeometry x="588.37" y="20" width="250" height="1110" as="geometry" />
        </mxCell>
        <mxCell id="5TCbdHprw5-dNmB80KR2-78" value="Заполнение дааных" style="rounded=1;whiteSpace=wrap;html=1;shadow=0;comic=0;labelBackgroundColor=none;strokeWidth=1;fontFamily=Verdana;fontSize=12;align=center;arcSize=50;" vertex="1" parent="5TCbdHprw5-dNmB80KR2-75">
          <mxGeometry x="47.5" y="160" width="155" height="30" as="geometry" />
        </mxCell>
        <mxCell id="5TCbdHprw5-dNmB80KR2-100" value="Сохранение данных" style="rounded=1;whiteSpace=wrap;html=1;shadow=0;comic=0;labelBackgroundColor=none;strokeWidth=1;fontFamily=Verdana;fontSize=12;align=center;arcSize=50;" vertex="1" parent="5TCbdHprw5-dNmB80KR2-75">
          <mxGeometry x="42" y="490" width="155" height="30" as="geometry" />
        </mxCell>
        <mxCell id="5TCbdHprw5-dNmB80KR2-150" style="edgeStyle=orthogonalEdgeStyle;rounded=0;orthogonalLoop=1;jettySize=auto;html=1;entryX=0.5;entryY=0;entryDx=0;entryDy=0;" edge="1" parent="5TCbdHprw5-dNmB80KR2-75" source="5TCbdHprw5-dNmB80KR2-118" target="5TCbdHprw5-dNmB80KR2-125">
          <mxGeometry relative="1" as="geometry" />
        </mxCell>
        <mxCell id="5TCbdHprw5-dNmB80KR2-118" value="Сохранение данных" style="rounded=1;whiteSpace=wrap;html=1;shadow=0;comic=0;labelBackgroundColor=none;strokeWidth=1;fontFamily=Verdana;fontSize=12;align=center;arcSize=50;" vertex="1" parent="5TCbdHprw5-dNmB80KR2-75">
          <mxGeometry x="47.5" y="850" width="155" height="30" as="geometry" />
        </mxCell>
        <mxCell id="5TCbdHprw5-dNmB80KR2-125" value="Получение данных игры" style="rounded=1;whiteSpace=wrap;html=1;shadow=0;comic=0;labelBackgroundColor=none;strokeWidth=1;fontFamily=Verdana;fontSize=12;align=center;arcSize=50;" vertex="1" parent="5TCbdHprw5-dNmB80KR2-75">
          <mxGeometry x="47.5" y="890" width="155" height="40" as="geometry" />
        </mxCell>
        <mxCell id="5TCbdHprw5-dNmB80KR2-146" value="Сохранение данных" style="rounded=1;whiteSpace=wrap;html=1;shadow=0;comic=0;labelBackgroundColor=none;strokeWidth=1;fontFamily=Verdana;fontSize=12;align=center;arcSize=50;" vertex="1" parent="5TCbdHprw5-dNmB80KR2-75">
          <mxGeometry x="47.5" y="1050" width="155" height="30" as="geometry" />
        </mxCell>
        <mxCell id="5TCbdHprw5-dNmB80KR2-90" style="edgeStyle=orthogonalEdgeStyle;rounded=0;orthogonalLoop=1;jettySize=auto;html=1;entryX=0.5;entryY=0;entryDx=0;entryDy=0;" edge="1" parent="1c1d494c118603dd-1" source="5TCbdHprw5-dNmB80KR2-81" target="5TCbdHprw5-dNmB80KR2-87">
          <mxGeometry relative="1" as="geometry" />
        </mxCell>
        <mxCell id="5TCbdHprw5-dNmB80KR2-99" style="edgeStyle=orthogonalEdgeStyle;rounded=0;orthogonalLoop=1;jettySize=auto;html=1;entryX=0.5;entryY=0;entryDx=0;entryDy=0;" edge="1" parent="1c1d494c118603dd-1" source="5TCbdHprw5-dNmB80KR2-95" target="5TCbdHprw5-dNmB80KR2-98">
          <mxGeometry relative="1" as="geometry" />
        </mxCell>
        <mxCell id="5TCbdHprw5-dNmB80KR2-101" style="edgeStyle=orthogonalEdgeStyle;rounded=0;orthogonalLoop=1;jettySize=auto;html=1;" edge="1" parent="1c1d494c118603dd-1" source="5TCbdHprw5-dNmB80KR2-98" target="5TCbdHprw5-dNmB80KR2-100">
          <mxGeometry relative="1" as="geometry" />
        </mxCell>
        <mxCell id="5TCbdHprw5-dNmB80KR2-103" style="edgeStyle=orthogonalEdgeStyle;rounded=0;orthogonalLoop=1;jettySize=auto;html=1;entryX=0.5;entryY=0;entryDx=0;entryDy=0;" edge="1" parent="1c1d494c118603dd-1" source="5TCbdHprw5-dNmB80KR2-100" target="5TCbdHprw5-dNmB80KR2-102">
          <mxGeometry relative="1" as="geometry" />
        </mxCell>
        <mxCell id="5TCbdHprw5-dNmB80KR2-105" style="edgeStyle=orthogonalEdgeStyle;rounded=0;orthogonalLoop=1;jettySize=auto;html=1;entryX=0.5;entryY=0;entryDx=0;entryDy=0;" edge="1" parent="1c1d494c118603dd-1" source="5TCbdHprw5-dNmB80KR2-102" target="5TCbdHprw5-dNmB80KR2-104">
          <mxGeometry relative="1" as="geometry" />
        </mxCell>
        <mxCell id="5TCbdHprw5-dNmB80KR2-119" style="edgeStyle=orthogonalEdgeStyle;rounded=0;orthogonalLoop=1;jettySize=auto;html=1;entryX=0.5;entryY=0;entryDx=0;entryDy=0;" edge="1" parent="1c1d494c118603dd-1" source="5TCbdHprw5-dNmB80KR2-116" target="5TCbdHprw5-dNmB80KR2-118">
          <mxGeometry relative="1" as="geometry" />
        </mxCell>
        <mxCell id="5TCbdHprw5-dNmB80KR2-120" style="edgeStyle=orthogonalEdgeStyle;rounded=0;orthogonalLoop=1;jettySize=auto;html=1;entryX=0;entryY=0.5;entryDx=0;entryDy=0;" edge="1" parent="1c1d494c118603dd-1" source="5TCbdHprw5-dNmB80KR2-111" target="5TCbdHprw5-dNmB80KR2-116">
          <mxGeometry relative="1" as="geometry">
            <mxPoint x="330" y="860" as="targetPoint" />
            <Array as="points">
              <mxPoint x="320" y="885" />
              <mxPoint x="320" y="860" />
            </Array>
          </mxGeometry>
        </mxCell>
        <mxCell id="5TCbdHprw5-dNmB80KR2-122" style="edgeStyle=orthogonalEdgeStyle;rounded=0;orthogonalLoop=1;jettySize=auto;html=1;entryX=0.5;entryY=0;entryDx=0;entryDy=0;exitX=0;exitY=0.5;exitDx=0;exitDy=0;" edge="1" parent="1c1d494c118603dd-1" source="5TCbdHprw5-dNmB80KR2-125" target="5TCbdHprw5-dNmB80KR2-123">
          <mxGeometry relative="1" as="geometry">
            <mxPoint x="508.3800000000001" y="930" as="targetPoint" />
          </mxGeometry>
        </mxCell>
        <mxCell id="5TCbdHprw5-dNmB80KR2-127" style="edgeStyle=orthogonalEdgeStyle;rounded=0;orthogonalLoop=1;jettySize=auto;html=1;entryX=0.5;entryY=0;entryDx=0;entryDy=0;" edge="1" parent="1c1d494c118603dd-1" source="5TCbdHprw5-dNmB80KR2-123" target="5TCbdHprw5-dNmB80KR2-126">
          <mxGeometry relative="1" as="geometry" />
        </mxCell>
        <mxCell id="5TCbdHprw5-dNmB80KR2-145" style="edgeStyle=orthogonalEdgeStyle;rounded=0;orthogonalLoop=1;jettySize=auto;html=1;entryX=0.5;entryY=0;entryDx=0;entryDy=0;" edge="1" parent="1c1d494c118603dd-1" source="5TCbdHprw5-dNmB80KR2-126" target="5TCbdHprw5-dNmB80KR2-142">
          <mxGeometry relative="1" as="geometry" />
        </mxCell>
        <mxCell id="5TCbdHprw5-dNmB80KR2-147" style="edgeStyle=orthogonalEdgeStyle;rounded=0;orthogonalLoop=1;jettySize=auto;html=1;entryX=0.5;entryY=0;entryDx=0;entryDy=0;" edge="1" parent="1c1d494c118603dd-1" source="5TCbdHprw5-dNmB80KR2-142" target="5TCbdHprw5-dNmB80KR2-146">
          <mxGeometry relative="1" as="geometry" />
        </mxCell>
        <mxCell id="5TCbdHprw5-dNmB80KR2-148" style="edgeStyle=orthogonalEdgeStyle;rounded=0;orthogonalLoop=1;jettySize=auto;html=1;entryX=0.5;entryY=1;entryDx=0;entryDy=0;exitX=0;exitY=0.5;exitDx=0;exitDy=0;" edge="1" parent="1c1d494c118603dd-1" source="5TCbdHprw5-dNmB80KR2-146" target="5TCbdHprw5-dNmB80KR2-128">
          <mxGeometry relative="1" as="geometry">
            <Array as="points">
              <mxPoint x="616" y="1090" />
              <mxPoint x="174" y="1090" />
            </Array>
          </mxGeometry>
        </mxCell>
      </root>
    </mxGraphModel>
  </diagram>
</mxfile>
